<mxfile host="app.diagrams.net" modified="2024-05-22T08:28:00.023Z" agent="Mozilla/5.0 (Windows NT 10.0; Win64; x64) AppleWebKit/537.36 (KHTML, like Gecko) Chrome/124.0.0.0 Safari/537.36" version="24.4.4" etag="i2vWk1bYZtjLDvRoNNfX" type="github">
  <diagram name="Page-1" id="QcaGXy1-pQgFcUNf31Er">
    <mxGraphModel>
      <root>
        <mxCell id="0" />
        <mxCell id="1" parent="0" />
      </root>
    </mxGraphModel>
  </diagram>
</mxfile>
